IKResults
version=1
nRows=7
nColumns=79
inDegrees=yes
endheader
time	/jointset/ground_pelvis/pelvis_tilt/value	/jointset/ground_pelvis/pelvis_tilt/speed	/jointset/ground_pelvis/pelvis_list/value	/jointset/ground_pelvis/pelvis_list/speed	/jointset/ground_pelvis/pelvis_rotation/value	/jointset/ground_pelvis/pelvis_rotation/speed	/jointset/ground_pelvis/pelvis_tx/value	/jointset/ground_pelvis/pelvis_tx/speed	/jointset/ground_pelvis/pelvis_ty/value	/jointset/ground_pelvis/pelvis_ty/speed	/jointset/ground_pelvis/pelvis_tz/value	/jointset/ground_pelvis/pelvis_tz/speed	/jointset/hip_r/hip_flexion_r/value	/jointset/hip_r/hip_flexion_r/speed	/jointset/hip_r/hip_adduction_r/value	/jointset/hip_r/hip_adduction_r/speed	/jointset/hip_r/hip_rotation_r/value	/jointset/hip_r/hip_rotation_r/speed	/jointset/walker_knee_r/knee_angle_r/value	/jointset/walker_knee_r/knee_angle_r/speed	/jointset/patellofemoral_r/knee_angle_r_beta/value	/jointset/patellofemoral_r/knee_angle_r_beta/speed	/jointset/ankle_r/ankle_angle_r/value	/jointset/ankle_r/ankle_angle_r/speed	/jointset/subtalar_r/subtalar_angle_r/value	/jointset/subtalar_r/subtalar_angle_r/speed	/jointset/mtp_r/mtp_angle_r/value	/jointset/mtp_r/mtp_angle_r/speed	/jointset/hip_l/hip_flexion_l/value	/jointset/hip_l/hip_flexion_l/speed	/jointset/hip_l/hip_adduction_l/value	/jointset/hip_l/hip_adduction_l/speed	/jointset/hip_l/hip_rotation_l/value	/jointset/hip_l/hip_rotation_l/speed	/jointset/walker_knee_l/knee_angle_l/value	/jointset/walker_knee_l/knee_angle_l/speed	/jointset/patellofemoral_l/knee_angle_l_beta/value	/jointset/patellofemoral_l/knee_angle_l_beta/speed	/jointset/ankle_l/ankle_angle_l/value	/jointset/ankle_l/ankle_angle_l/speed	/jointset/subtalar_l/subtalar_angle_l/value	/jointset/subtalar_l/subtalar_angle_l/speed	/jointset/mtp_l/mtp_angle_l/value	/jointset/mtp_l/mtp_angle_l/speed	/jointset/back/lumbar_extension/value	/jointset/back/lumbar_extension/speed	/jointset/back/lumbar_bending/value	/jointset/back/lumbar_bending/speed	/jointset/back/lumbar_rotation/value	/jointset/back/lumbar_rotation/speed	/jointset/acromial_r/arm_flex_r/value	/jointset/acromial_r/arm_flex_r/speed	/jointset/acromial_r/arm_add_r/value	/jointset/acromial_r/arm_add_r/speed	/jointset/acromial_r/arm_rot_r/value	/jointset/acromial_r/arm_rot_r/speed	/jointset/elbow_r/elbow_flex_r/value	/jointset/elbow_r/elbow_flex_r/speed	/jointset/radioulnar_r/pro_sup_r/value	/jointset/radioulnar_r/pro_sup_r/speed	/jointset/radius_hand_r/wrist_flex_r/value	/jointset/radius_hand_r/wrist_flex_r/speed	/jointset/radius_hand_r/wrist_dev_r/value	/jointset/radius_hand_r/wrist_dev_r/speed	/jointset/acromial_l/arm_flex_l/value	/jointset/acromial_l/arm_flex_l/speed	/jointset/acromial_l/arm_add_l/value	/jointset/acromial_l/arm_add_l/speed	/jointset/acromial_l/arm_rot_l/value	/jointset/acromial_l/arm_rot_l/speed	/jointset/elbow_l/elbow_flex_l/value	/jointset/elbow_l/elbow_flex_l/speed	/jointset/radioulnar_l/pro_sup_l/value	/jointset/radioulnar_l/pro_sup_l/speed	/jointset/radius_hand_l/wrist_flex_l/value	/jointset/radius_hand_l/wrist_flex_l/speed	/jointset/radius_hand_l/wrist_dev_l/value	/jointset/radius_hand_l/wrist_dev_l/speed
     37.46666667	      0.00000000	      0.00000000	      0.00000000	      0.00000000	      0.00000000	      0.00000000	      0.00000000	      0.00000000	      0.93000000	      0.00000000	      0.00000000	      0.00000000	     18.82100068	      0.00000000	    -14.52799972	      0.00000000	     12.45299929	      0.00000000	     17.54700042	      0.00000000	      0.30625293	      0.00000000	      7.21699999	      0.00000000	      0.00000000	      0.00000000	      0.00000000	      0.00000000	    119.97488218	      0.00000000	    -49.99842696	      0.00000000	     35.89609123	      0.00000000	     13.97379978	      0.00000000	      0.24388882	      0.00000000	      0.00000000	      0.00000000	      0.00000000	      0.00000000	      0.00000000	      0.00000000	      0.00000000	      0.00000000	      0.00000000	      0.00000000	      0.00000000	      0.00000000	      0.00000000	      0.00000000	      0.00000000	      0.00000000	      0.00000000	      0.00000000	      0.00000000	      0.00000000	      0.00000000	      0.00000000	      0.00000000	      0.00000000	      0.00000000	      0.00000000	    -53.35481982	      0.00000000	   -108.27434306	      0.00000000	    -89.95044696	      0.00000000	     12.84148386	      0.00000000	     45.00002024	      0.00000000	      0.00000000	      0.00000000	      0.00000000	      0.00000000
     37.48333333	      0.00000000	      0.00000000	      0.00000000	      0.00000000	      0.00000000	      0.00000000	      0.00000000	      0.00000000	      0.93000000	      0.00000000	      0.00000000	      0.00000000	     18.82100068	      0.00000000	    -14.52799972	      0.00000000	     12.45299929	      0.00000000	     17.54700042	      0.00000000	      0.30625293	      0.00000000	      7.21699999	      0.00000000	      0.00000000	      0.00000000	      0.00000000	      0.00000000	    119.95930703	      0.00000000	    -49.99843972	      0.00000000	     35.67674711	      0.00000000	     12.79625205	      0.00000000	      0.22333673	      0.00000000	      0.00000000	      0.00000000	      0.00000000	      0.00000000	      0.00000000	      0.00000000	      0.00000000	      0.00000000	      0.00000000	      0.00000000	      0.00000000	      0.00000000	      0.00000000	      0.00000000	      0.00000000	      0.00000000	      0.00000000	      0.00000000	      0.00000000	      0.00000000	      0.00000000	      0.00000000	      0.00000000	      0.00000000	      0.00000000	      0.00000000	    -52.55847093	      0.00000000	   -108.95185952	      0.00000000	    -89.95959259	      0.00000000	     13.34752554	      0.00000000	     45.00001994	      0.00000000	      0.00000000	      0.00000000	      0.00000000	      0.00000000
     37.50000000	      0.00000000	      0.00000000	      0.00000000	      0.00000000	      0.00000000	      0.00000000	      0.00000000	      0.00000000	      0.93000000	      0.00000000	      0.00000000	      0.00000000	     18.82100068	      0.00000000	    -14.52799972	      0.00000000	     12.45299929	      0.00000000	     17.54700042	      0.00000000	      0.30625293	      0.00000000	      7.21699999	      0.00000000	      0.00000000	      0.00000000	      0.00000000	      0.00000000	    119.88412467	      0.00000000	    -49.99845172	      0.00000000	     35.21282052	      0.00000000	     11.38663027	      0.00000000	      0.19873419	      0.00000000	      0.00000000	      0.00000000	      0.00000000	      0.00000000	      0.00000000	      0.00000000	      0.00000000	      0.00000000	      0.00000000	      0.00000000	      0.00000000	      0.00000000	      0.00000000	      0.00000000	      0.00000000	      0.00000000	      0.00000000	      0.00000000	      0.00000000	      0.00000000	      0.00000000	      0.00000000	      0.00000000	      0.00000000	      0.00000000	      0.00000000	    -51.80670408	      0.00000000	   -109.66091871	      0.00000000	    -89.96692433	      0.00000000	     13.75615901	      0.00000000	     45.00001947	      0.00000000	      0.00000000	      0.00000000	      0.00000000	      0.00000000
     37.51666667	      0.00000000	      0.00000000	      0.00000000	      0.00000000	      0.00000000	      0.00000000	      0.00000000	      0.00000000	      0.93000000	      0.00000000	      0.00000000	      0.00000000	     18.82100068	      0.00000000	    -14.52799972	      0.00000000	     12.45299929	      0.00000000	     17.54700042	      0.00000000	      0.30625293	      0.00000000	      7.21699999	      0.00000000	      0.00000000	      0.00000000	      0.00000000	      0.00000000	     42.95901485	      0.00000000	    -49.99830582	      0.00000000	    -39.96810424	      0.00000000	      0.00307806	      0.00000000	      0.00005372	      0.00000000	      0.00000000	      0.00000000	      0.00000000	      0.00000000	      0.00000000	      0.00000000	      0.00000000	      0.00000000	      0.00000000	      0.00000000	      0.00000000	      0.00000000	      0.00000000	      0.00000000	      0.00000000	      0.00000000	      0.00000000	      0.00000000	      0.00000000	      0.00000000	      0.00000000	      0.00000000	      0.00000000	      0.00000000	      0.00000000	      0.00000000	    -51.06224062	      0.00000000	   -110.38871092	      0.00000000	    -89.97257890	      0.00000000	     14.08107241	      0.00000000	     45.00000422	      0.00000000	      0.00000000	      0.00000000	      0.00000000	      0.00000000
     37.53333333	      0.00000000	      0.00000000	      0.00000000	      0.00000000	      0.00000000	      0.00000000	      0.00000000	      0.00000000	      0.93000000	      0.00000000	      0.00000000	      0.00000000	     18.82100068	      0.00000000	    -14.52799972	      0.00000000	     12.45299929	      0.00000000	     17.54700042	      0.00000000	      0.30625293	      0.00000000	      7.21699999	      0.00000000	      0.00000000	      0.00000000	      0.00000000	      0.00000000	     43.32222370	      0.00000000	    -49.99826284	      0.00000000	    -39.96961762	      0.00000000	      0.00294401	      0.00000000	      0.00005138	      0.00000000	      0.00000000	      0.00000000	      0.00000000	      0.00000000	      0.00000000	      0.00000000	      0.00000000	      0.00000000	      0.00000000	      0.00000000	      0.00000000	      0.00000000	      0.00000000	      0.00000000	      0.00000000	      0.00000000	      0.00000000	      0.00000000	      0.00000000	      0.00000000	      0.00000000	      0.00000000	      0.00000000	      0.00000000	      0.00000000	      0.00000000	    -50.35945995	      0.00000000	   -111.12354490	      0.00000000	    -89.97682400	      0.00000000	     14.47224194	      0.00000000	     45.00000419	      0.00000000	      0.00000000	      0.00000000	      0.00000000	      0.00000000
     37.55000000	      0.00000000	      0.00000000	      0.00000000	      0.00000000	      0.00000000	      0.00000000	      0.00000000	      0.00000000	      0.93000000	      0.00000000	      0.00000000	      0.00000000	     18.82100068	      0.00000000	    -14.52799972	      0.00000000	     12.45299929	      0.00000000	     17.54700042	      0.00000000	      0.30625293	      0.00000000	      7.21699999	      0.00000000	      0.00000000	      0.00000000	      0.00000000	      0.00000000	     43.73935920	      0.00000000	    -49.99821726	      0.00000000	    -39.97021943	      0.00000000	      0.00281298	      0.00000000	      0.00004910	      0.00000000	      0.00000000	      0.00000000	      0.00000000	      0.00000000	      0.00000000	      0.00000000	      0.00000000	      0.00000000	      0.00000000	      0.00000000	      0.00000000	      0.00000000	      0.00000000	      0.00000000	      0.00000000	      0.00000000	      0.00000000	      0.00000000	      0.00000000	      0.00000000	      0.00000000	      0.00000000	      0.00000000	      0.00000000	      0.00000000	      0.00000000	    -49.76001400	      0.00000000	   -111.88337859	      0.00000000	    -89.98005626	      0.00000000	     14.99209701	      0.00000000	     45.00000416	      0.00000000	      0.00000000	      0.00000000	      0.00000000	      0.00000000
     37.56666667	      0.00000000	      0.00000000	     -0.00000000	      0.00000000	      0.00000000	      0.00000000	     -0.00000000	      0.00000000	      0.93000000	      0.00000000	     -0.00000000	      0.00000000	     18.82100068	      0.00000000	    -14.52799972	      0.00000000	     12.45299929	      0.00000000	     17.54700042	      0.00000000	      0.30625293	      0.00000000	      7.21699999	      0.00000000	      0.00000000	      0.00000000	      0.00000000	      0.00000000	     44.18430417	      0.00000000	    -49.99817097	      0.00000000	    -39.97105923	      0.00000000	      0.00268814	      0.00000000	      0.00004692	      0.00000000	     -0.00000000	      0.00000000	     -0.00000000	      0.00000000	     -0.00000000	      0.00000000	      0.00000000	      0.00000000	      0.00000000	      0.00000000	     -0.00000000	      0.00000000	     -0.00000000	      0.00000000	      0.00000000	      0.00000000	     -0.00000000	      0.00000000	      0.00000000	      0.00000000	      0.00000000	      0.00000000	     -0.00000000	      0.00000000	     -0.00000000	      0.00000000	    -49.33149039	      0.00000000	   -112.71012727	      0.00000000	    -89.98263495	      0.00000000	     15.50039311	      0.00000000	     45.00000413	      0.00000000	      0.00000000	      0.00000000	     -0.00000000	      0.00000000
